<svg width="0" height="0" class="hidden">
  <symbol fill="none" xmlns="http://www.w3.org/2000/svg" viewBox="0 0 32 32" id="van">
    <g clip-path="url(#clip0_12164_590)">
      <path d="M12 2H2V30H12V2ZM30 2H20V12H30V2ZM30 20V30H20V20H30ZM0 2C0 1.46957 0.210714 0.960859 0.585786 0.585786C0.960859 0.210714 1.46957 0 2 0L12 0C12.5304 0 13.0391 0.210714 13.4142 0.585786C13.7893 0.960859 14 1.46957 14 2V30C14 30.5304 13.7893 31.0391 13.4142 31.4142C13.0391 31.7893 12.5304 32 12 32H2C1.46957 32 0.960859 31.7893 0.585786 31.4142C0.210714 31.0391 0 30.5304 0 30V2ZM18 2C18 1.46957 18.2107 0.960859 18.5858 0.585786C18.9609 0.210714 19.4696 0 20 0L30 0C30.5304 0 31.0391 0.210714 31.4142 0.585786C31.7893 0.960859 32 1.46957 32 2V12C32 12.5304 31.7893 13.0391 31.4142 13.4142C31.0391 13.7893 30.5304 14 30 14H20C19.4696 14 18.9609 13.7893 18.5858 13.4142C18.2107 13.0391 18 12.5304 18 12V2ZM20 18C19.4696 18 18.9609 18.2107 18.5858 18.5858C18.2107 18.9609 18 19.4696 18 20V30C18 30.5304 18.2107 31.0391 18.5858 31.4142C18.9609 31.7893 19.4696 32 20 32H30C30.5304 32 31.0391 31.7893 31.4142 31.4142C31.7893 31.0391 32 30.5304 32 30V20C32 19.4696 31.7893 18.9609 31.4142 18.5858C31.0391 18.2107 30.5304 18 30 18H20Z" fill="#101828"></path>
    </g>
    <defs>
      <clipPath id="clip0_12164_590">
        <rect width="32" height="32" fill="white"></rect>
      </clipPath>
    </defs>
  </symbol>
  <symbol fill="none" xmlns="http://www.w3.org/2000/svg" viewBox="0 0 32 32" id="fully-Integrated">
    <path d="M2 5C2 4.20435 2.31607 3.44129 2.87868 2.87868C3.44129 2.31607 4.20435 2 5 2H11C11.7956 2 12.5587 2.31607 13.1213 2.87868C13.6839 3.44129 14 4.20435 14 5V11C14 11.7956 13.6839 12.5587 13.1213 13.1213C12.5587 13.6839 11.7956 14 11 14H5C4.20435 14 3.44129 13.6839 2.87868 13.1213C2.31607 12.5587 2 11.7956 2 11V5ZM5 4C4.73478 4 4.48043 4.10536 4.29289 4.29289C4.10536 4.48043 4 4.73478 4 5V11C4 11.2652 4.10536 11.5196 4.29289 11.7071C4.48043 11.8946 4.73478 12 5 12H11C11.2652 12 11.5196 11.8946 11.7071 11.7071C11.8946 11.5196 12 11.2652 12 11V5C12 4.73478 11.8946 4.48043 11.7071 4.29289C11.5196 4.10536 11.2652 4 11 4H5ZM18 5C18 4.20435 18.3161 3.44129 18.8787 2.87868C19.4413 2.31607 20.2044 2 21 2H27C27.7956 2 28.5587 2.31607 29.1213 2.87868C29.6839 3.44129 30 4.20435 30 5V11C30 11.7956 29.6839 12.5587 29.1213 13.1213C28.5587 13.6839 27.7956 14 27 14H21C20.2044 14 19.4413 13.6839 18.8787 13.1213C18.3161 12.5587 18 11.7956 18 11V5ZM21 4C20.7348 4 20.4804 4.10536 20.2929 4.29289C20.1054 4.48043 20 4.73478 20 5V11C20 11.2652 20.1054 11.5196 20.2929 11.7071C20.4804 11.8946 20.7348 12 21 12H27C27.2652 12 27.5196 11.8946 27.7071 11.7071C27.8946 11.5196 28 11.2652 28 11V5C28 4.73478 27.8946 4.48043 27.7071 4.29289C27.5196 4.10536 27.2652 4 27 4H21ZM2 21C2 20.2044 2.31607 19.4413 2.87868 18.8787C3.44129 18.3161 4.20435 18 5 18H11C11.7956 18 12.5587 18.3161 13.1213 18.8787C13.6839 19.4413 14 20.2044 14 21V27C14 27.7956 13.6839 28.5587 13.1213 29.1213C12.5587 29.6839 11.7956 30 11 30H5C4.20435 30 3.44129 29.6839 2.87868 29.1213C2.31607 28.5587 2 27.7956 2 27V21ZM5 20C4.73478 20 4.48043 20.1054 4.29289 20.2929C4.10536 20.4804 4 20.7348 4 21V27C4 27.2652 4.10536 27.5196 4.29289 27.7071C4.48043 27.8946 4.73478 28 5 28H11C11.2652 28 11.5196 27.8946 11.7071 27.7071C11.8946 27.5196 12 27.2652 12 27V21C12 20.7348 11.8946 20.4804 11.7071 20.2929C11.5196 20.1054 11.2652 20 11 20H5ZM18 21C18 20.2044 18.3161 19.4413 18.8787 18.8787C19.4413 18.3161 20.2044 18 21 18H27C27.7956 18 28.5587 18.3161 29.1213 18.8787C29.6839 19.4413 30 20.2044 30 21V27C30 27.7956 29.6839 28.5587 29.1213 29.1213C28.5587 29.6839 27.7956 30 27 30H21C20.2044 30 19.4413 29.6839 18.8787 29.1213C18.3161 28.5587 18 27.7956 18 27V21ZM21 20C20.7348 20 20.4804 20.1054 20.2929 20.2929C20.1054 20.4804 20 20.7348 20 21V27C20 27.2652 20.1054 27.5196 20.2929 27.7071C20.4804 27.8946 20.7348 28 21 28H27C27.2652 28 27.5196 27.8946 27.7071 27.7071C27.8946 27.5196 28 27.2652 28 27V21C28 20.7348 27.8946 20.4804 27.7071 20.2929C27.5196 20.1054 27.2652 20 27 20H21Z" fill="#101828"></path>
  </symbol>
  <symbol fill="none" xmlns="http://www.w3.org/2000/svg" viewBox="0 0 32 32" id="alcove">
    <path d="M8 4V8H4V4H8ZM10 28V24C10 23.4696 9.78929 22.9609 9.41421 22.5858C9.03914 22.2107 8.53043 22 8 22H4C3.46957 22 2.96086 22.2107 2.58579 22.5858C2.21071 22.9609 2 23.4696 2 24V28C2 28.5304 2.21071 29.0391 2.58579 29.4142C2.96086 29.7893 3.46957 30 4 30H8C8.53043 30 9.03914 29.7893 9.41421 29.4142C9.78929 29.0391 10 28.5304 10 28ZM10 18V14C10 13.4696 9.78929 12.9609 9.41421 12.5858C9.03914 12.2107 8.53043 12 8 12H4C3.46957 12 2.96086 12.2107 2.58579 12.5858C2.21071 12.9609 2 13.4696 2 14V18C2 18.5304 2.21071 19.0391 2.58579 19.4142C2.96086 19.7893 3.46957 20 4 20H8C8.53043 20 9.03914 19.7893 9.41421 19.4142C9.78929 19.0391 10 18.5304 10 18ZM10 8V4C10 3.46957 9.78929 2.96086 9.41421 2.58579C9.03914 2.21071 8.53043 2 8 2H4C3.46957 2 2.96086 2.21071 2.58579 2.58579C2.21071 2.96086 2 3.46957 2 4V8C2 8.53043 2.21071 9.03914 2.58579 9.41421C2.96086 9.78929 3.46957 10 4 10H8C8.53043 10 9.03914 9.78929 9.41421 9.41421C9.78929 9.03914 10 8.53043 10 8ZM20 28V24C20 23.4696 19.7893 22.9609 19.4142 22.5858C19.0391 22.2107 18.5304 22 18 22H14C13.4696 22 12.9609 22.2107 12.5858 22.5858C12.2107 22.9609 12 23.4696 12 24V28C12 28.5304 12.2107 29.0391 12.5858 29.4142C12.9609 29.7893 13.4696 30 14 30H18C18.5304 30 19.0391 29.7893 19.4142 29.4142C19.7893 29.0391 20 28.5304 20 28ZM20 18V14C20 13.4696 19.7893 12.9609 19.4142 12.5858C19.0391 12.2107 18.5304 12 18 12H14C13.4696 12 12.9609 12.2107 12.5858 12.5858C12.2107 12.9609 12 13.4696 12 14V18C12 18.5304 12.2107 19.0391 12.5858 19.4142C12.9609 19.7893 13.4696 20 14 20H18C18.5304 20 19.0391 19.7893 19.4142 19.4142C19.7893 19.0391 20 18.5304 20 18ZM20 8V4C20 3.46957 19.7893 2.96086 19.4142 2.58579C19.0391 2.21071 18.5304 2 18 2H14C13.4696 2 12.9609 2.21071 12.5858 2.58579C12.2107 2.96086 12 3.46957 12 4V8C12 8.53043 12.2107 9.03914 12.5858 9.41421C12.9609 9.78929 13.4696 10 14 10H18C18.5304 10 19.0391 9.78929 19.4142 9.41421C19.7893 9.03914 20 8.53043 20 8ZM18 4V8H14V4H18ZM28 4V8H24V4H28ZM8 14V18H4V14H8ZM18 14V18H14V14H18ZM28 14H24V18H28V14ZM8 24V28H4V24H8ZM18 24V28H14V24H18ZM28 24V28H24V24H28ZM24 2C23.4696 2 22.9609 2.21071 22.5858 2.58579C22.2107 2.96086 22 3.46957 22 4V8C22 8.53043 22.2107 9.03914 22.5858 9.41421C22.9609 9.78929 23.4696 10 24 10H28C28.5304 10 29.0391 9.78929 29.4142 9.41421C29.7893 9.03914 30 8.53043 30 8V4C30 3.46957 29.7893 2.96086 29.4142 2.58579C29.0391 2.21071 28.5304 2 28 2H24ZM22 14C22 13.4696 22.2107 12.9609 22.5858 12.5858C22.9609 12.2107 23.4696 12 24 12H28C28.5304 12 29.0391 12.2107 29.4142 12.5858C29.7893 12.9609 30 13.4696 30 14V18C30 18.5304 29.7893 19.0391 29.4142 19.4142C29.0391 19.7893 28.5304 20 28 20H24C23.4696 20 22.9609 19.7893 22.5858 19.4142C22.2107 19.0391 22 18.5304 22 18V14ZM24 22C23.4696 22 22.9609 22.2107 22.5858 22.5858C22.2107 22.9609 22 23.4696 22 24V28C22 28.5304 22.2107 29.0391 22.5858 29.4142C22.9609 29.7893 23.4696 30 24 30H28C28.5304 30 29.0391 29.7893 29.4142 29.4142C29.7893 29.0391 30 28.5304 30 28V24C30 23.4696 29.7893 22.9609 29.4142 22.5858C29.0391 22.2107 28.5304 22 28 22H24Z" fill="#101828"></path>
  </symbol>
</svg>